# xmcd CD database file
#
# Track frame offsets:
#	183
#	17243
#	34663
#	56295
#	76628
#	93643
#	126153
#	147343
#	166903
#
# Disc length: 2504 seconds
#
# Revision: 0
# Processed by: cddbd v1.4PL0 Copyright (c) Steve Scherf et al.
# Submitted via: CDex 1.50beta9
#
DISCID=6a09c609
DTITLE=신촌블루스 - 그대없는 거리.아쉬움
DYEAR=1988
DGENRE=Blues
TTITLE0=그대없는 거리
TTITLE1=오늘같은 밤
TTITLE2=나그네의 옛이야기
TTITLE3=한밤중에
TTITLE4=아쉬움
TTITLE5=봄비
TTITLE6=바닷가의 선들
TTITLE7=바람인가
TTITLE8=Overnight Blues
EXTD=YEAR: 1988
EXTT0=
EXTT1=
EXTT2=
EXTT3=
EXTT4=
EXTT5=
EXTT6=
EXTT7=
EXTT8=
PLAYORDER=
